<mxfile host="app.diagrams.net" modified="2023-12-03T21:46:16.601Z" agent="Mozilla/5.0 (X11; Linux x86_64; rv:120.0) Gecko/20100101 Firefox/120.0" etag="89il9mlyZ0sBjOZulLIY" version="22.1.5" type="github">
  <diagram name="Page-1" id="281KWQ_vz6D9ApKIW97s">
    <mxGraphModel dx="2206" dy="1138" grid="1" gridSize="10" guides="1" tooltips="1" connect="1" arrows="1" fold="1" page="1" pageScale="1" pageWidth="850" pageHeight="1100" background="#E6E6E6" math="0" shadow="1">
      <root>
        <mxCell id="0" />
        <mxCell id="1" parent="0" />
        <mxCell id="exDdUY9-8li77esu1dYq-1" value="Investigación del Caso" style="whiteSpace=wrap;strokeWidth=2;fillColor=#e6d0de;strokeColor=#996185;gradientColor=#d5739d;" parent="1" vertex="1">
          <mxGeometry x="118" y="40" width="173" height="35" as="geometry" />
        </mxCell>
        <mxCell id="exDdUY9-8li77esu1dYq-2" value="Determinar si es una Violación de Seguridad" style="whiteSpace=wrap;strokeWidth=2;fillColor=#f8cecc;strokeColor=#b85450;gradientColor=#ea6b66;" parent="1" vertex="1">
          <mxGeometry x="40" y="125" width="330" height="35" as="geometry" />
        </mxCell>
        <mxCell id="exDdUY9-8li77esu1dYq-3" value="Evaluar la Obligación de Notificación" style="whiteSpace=wrap;strokeWidth=2;fillColor=#d5e8d4;strokeColor=#82b366;gradientColor=#97d077;" parent="1" vertex="1">
          <mxGeometry x="65" y="210" width="279" height="35" as="geometry" />
        </mxCell>
        <mxCell id="exDdUY9-8li77esu1dYq-4" value="Consultar RGPD y Guía AEPD" style="whiteSpace=wrap;strokeWidth=2;fillColor=#dae8fc;strokeColor=#6c8ebf;gradientColor=#7ea6e0;" parent="1" vertex="1">
          <mxGeometry x="96" y="295" width="218" height="35" as="geometry" />
        </mxCell>
        <mxCell id="exDdUY9-8li77esu1dYq-5" value="Consultar Anexo III de la guía AEPD" style="whiteSpace=wrap;strokeWidth=2;fillColor=#ffcd28;strokeColor=#d79b00;gradientColor=#ffa500;" parent="1" vertex="1">
          <mxGeometry x="72" y="380" width="266" height="35" as="geometry" />
        </mxCell>
        <mxCell id="exDdUY9-8li77esu1dYq-6" value="Elaborar un Informe o Resumen" style="whiteSpace=wrap;strokeWidth=2;fillStyle=solid;fillColor=#f8cecc;gradientColor=#ea6b66;strokeColor=#b85450;" parent="1" vertex="1">
          <mxGeometry x="85" y="465" width="240" height="35" as="geometry" />
        </mxCell>
        <mxCell id="exDdUY9-8li77esu1dYq-7" value="" style="curved=1;startArrow=none;endArrow=block;exitX=0.5034682433729227;exitY=1;entryX=0.5003030487985322;entryY=0;rounded=0;" parent="1" source="exDdUY9-8li77esu1dYq-1" target="exDdUY9-8li77esu1dYq-2" edge="1">
          <mxGeometry relative="1" as="geometry">
            <Array as="points" />
          </mxGeometry>
        </mxCell>
        <mxCell id="exDdUY9-8li77esu1dYq-8" value="" style="curved=1;startArrow=none;endArrow=block;exitX=0.5003030487985322;exitY=1;entryX=0.5021505595108087;entryY=0;rounded=0;" parent="1" source="exDdUY9-8li77esu1dYq-2" target="exDdUY9-8li77esu1dYq-3" edge="1">
          <mxGeometry relative="1" as="geometry">
            <Array as="points" />
          </mxGeometry>
        </mxCell>
        <mxCell id="exDdUY9-8li77esu1dYq-9" value="" style="curved=1;startArrow=none;endArrow=block;exitX=0.5021505595108087;exitY=1;entryX=0.5004587435941084;entryY=0;rounded=0;" parent="1" source="exDdUY9-8li77esu1dYq-3" target="exDdUY9-8li77esu1dYq-4" edge="1">
          <mxGeometry relative="1" as="geometry">
            <Array as="points" />
          </mxGeometry>
        </mxCell>
        <mxCell id="exDdUY9-8li77esu1dYq-10" value="" style="curved=1;startArrow=none;endArrow=block;exitX=0.5004587435941084;exitY=1;entryX=0.5003759627951715;entryY=0;rounded=0;" parent="1" source="exDdUY9-8li77esu1dYq-4" target="exDdUY9-8li77esu1dYq-5" edge="1">
          <mxGeometry relative="1" as="geometry">
            <Array as="points" />
          </mxGeometry>
        </mxCell>
        <mxCell id="exDdUY9-8li77esu1dYq-11" value="" style="curved=1;startArrow=none;endArrow=block;exitX=0.5003759627951715;exitY=1;entryX=0.5004166920979818;entryY=0;rounded=0;" parent="1" source="exDdUY9-8li77esu1dYq-5" target="exDdUY9-8li77esu1dYq-6" edge="1">
          <mxGeometry relative="1" as="geometry">
            <Array as="points" />
          </mxGeometry>
        </mxCell>
        <mxCell id="ljyijP0kOlmSLUWHq39t-1" value="RGPD (Reglamento General de Protección de Datos)" style="whiteSpace=wrap;strokeWidth=3;fillColor=#6d8764;fontColor=#ffffff;strokeColor=#3A5431;shadow=1;labelBackgroundColor=none;" vertex="1" parent="1">
          <mxGeometry x="2006" y="20" width="233" height="35" as="geometry" />
        </mxCell>
        <mxCell id="ljyijP0kOlmSLUWHq39t-86" style="edgeStyle=orthogonalEdgeStyle;rounded=0;orthogonalLoop=1;jettySize=auto;html=1;fillColor=#a20025;strokeColor=#6F0000;shadow=1;strokeWidth=3;labelBackgroundColor=none;" edge="1" parent="1" source="ljyijP0kOlmSLUWHq39t-3" target="ljyijP0kOlmSLUWHq39t-5">
          <mxGeometry relative="1" as="geometry" />
        </mxCell>
        <mxCell id="ljyijP0kOlmSLUWHq39t-88" style="edgeStyle=orthogonalEdgeStyle;rounded=0;orthogonalLoop=1;jettySize=auto;html=1;entryX=0.5;entryY=0;entryDx=0;entryDy=0;fillColor=#a20025;strokeColor=#6F0000;shadow=1;strokeWidth=3;labelBackgroundColor=none;" edge="1" parent="1" source="ljyijP0kOlmSLUWHq39t-3" target="ljyijP0kOlmSLUWHq39t-87">
          <mxGeometry relative="1" as="geometry" />
        </mxCell>
        <mxCell id="ljyijP0kOlmSLUWHq39t-3" value="Proceso de Evaluación de Severidad" style="whiteSpace=wrap;strokeWidth=3;fillColor=#a20025;fontColor=#ffffff;strokeColor=#6F0000;shadow=1;labelBackgroundColor=none;" vertex="1" parent="1">
          <mxGeometry x="1976" y="420" width="271" height="35" as="geometry" />
        </mxCell>
        <mxCell id="ljyijP0kOlmSLUWHq39t-5" value="Pasos Detallados" style="whiteSpace=wrap;strokeWidth=3;fillColor=#e51400;fontColor=#ffffff;strokeColor=#B20000;shadow=1;labelBackgroundColor=none;" vertex="1" parent="1">
          <mxGeometry x="1799" y="515" width="133" height="35" as="geometry" />
        </mxCell>
        <mxCell id="ljyijP0kOlmSLUWHq39t-7" value="Obligaciones de Notificación" style="whiteSpace=wrap;strokeWidth=3;fillColor=#008a00;fontColor=#ffffff;strokeColor=#005700;shadow=1;labelBackgroundColor=none;" vertex="1" parent="1">
          <mxGeometry x="1221" y="590" width="219" height="35" as="geometry" />
        </mxCell>
        <mxCell id="ljyijP0kOlmSLUWHq39t-8" value="Formato de Notificación" style="whiteSpace=wrap;strokeWidth=3;fillColor=#008a00;fontColor=#ffffff;strokeColor=#005700;shadow=1;labelBackgroundColor=none;" vertex="1" parent="1">
          <mxGeometry x="1050" y="715" width="188" height="35" as="geometry" />
        </mxCell>
        <mxCell id="ljyijP0kOlmSLUWHq39t-10" value="Requisitos del RGPD" style="whiteSpace=wrap;strokeWidth=3;fillColor=#008a00;fontColor=#ffffff;strokeColor=#005700;shadow=1;labelBackgroundColor=none;" vertex="1" parent="1">
          <mxGeometry x="1288" y="715" width="158" height="35" as="geometry" />
        </mxCell>
        <mxCell id="ljyijP0kOlmSLUWHq39t-11" value="Información Necesaria" style="whiteSpace=wrap;strokeWidth=3;fillColor=#008a00;fontColor=#ffffff;strokeColor=#005700;shadow=1;labelBackgroundColor=none;" vertex="1" parent="1">
          <mxGeometry x="1056" y="800" width="175" height="35" as="geometry" />
        </mxCell>
        <mxCell id="ljyijP0kOlmSLUWHq39t-12" value="Datos del Incidente" style="whiteSpace=wrap;strokeWidth=3;fillColor=#e51400;fontColor=#ffffff;strokeColor=#B20000;shadow=1;labelBackgroundColor=none;" vertex="1" parent="1">
          <mxGeometry x="1586" y="680" width="154" height="35" as="geometry" />
        </mxCell>
        <mxCell id="ljyijP0kOlmSLUWHq39t-97" style="edgeStyle=orthogonalEdgeStyle;rounded=0;orthogonalLoop=1;jettySize=auto;html=1;entryX=0.5;entryY=0;entryDx=0;entryDy=0;fillColor=#e51400;strokeColor=#B20000;shadow=1;strokeWidth=3;labelBackgroundColor=none;" edge="1" parent="1" source="ljyijP0kOlmSLUWHq39t-13" target="ljyijP0kOlmSLUWHq39t-14">
          <mxGeometry relative="1" as="geometry" />
        </mxCell>
        <mxCell id="ljyijP0kOlmSLUWHq39t-13" value="Impacto en los Afectados" style="whiteSpace=wrap;strokeWidth=3;fillColor=#e51400;fontColor=#ffffff;strokeColor=#B20000;shadow=1;labelBackgroundColor=none;" vertex="1" parent="1">
          <mxGeometry x="1992" y="680" width="195" height="35" as="geometry" />
        </mxCell>
        <mxCell id="ljyijP0kOlmSLUWHq39t-14" value="Medidas Correctivas" style="whiteSpace=wrap;strokeWidth=3;fillColor=#e51400;fontColor=#ffffff;strokeColor=#B20000;shadow=1;labelBackgroundColor=none;" vertex="1" parent="1">
          <mxGeometry x="1977.5" y="820" width="224" height="35" as="geometry" />
        </mxCell>
        <mxCell id="ljyijP0kOlmSLUWHq39t-15" value="Caso Específico" style="whiteSpace=wrap;strokeWidth=3;fillColor=#008a00;fontColor=#ffffff;strokeColor=#005700;shadow=1;labelBackgroundColor=none;" vertex="1" parent="1">
          <mxGeometry x="1096" y="950" width="164" height="35" as="geometry" />
        </mxCell>
        <mxCell id="ljyijP0kOlmSLUWHq39t-16" value="Recursos Adicionales" style="whiteSpace=wrap;strokeWidth=3;fillColor=#6d8764;fontColor=#ffffff;strokeColor=#3A5431;shadow=1;labelBackgroundColor=none;" vertex="1" parent="1">
          <mxGeometry x="2006" y="145" width="234" height="50" as="geometry" />
        </mxCell>
        <mxCell id="ljyijP0kOlmSLUWHq39t-17" value="Guía de la AEPD - Brechas de Seguridad - https://www.aepd.es/media/guias/guia-brechas-seguridad.pdf-" style="whiteSpace=wrap;strokeWidth=3;fillColor=#6d8764;fontColor=#ffffff;strokeColor=#3A5431;shadow=1;labelBackgroundColor=none;" vertex="1" parent="1">
          <mxGeometry x="2006" y="70" width="320" height="60" as="geometry" />
        </mxCell>
        <mxCell id="ljyijP0kOlmSLUWHq39t-22" value="1. Identificar el incidente" style="curved=1;startArrow=none;endArrow=block;exitX=0.37280697930128054;exitY=1;entryX=0.8044371831984748;entryY=0;rounded=0;fillColor=#e51400;strokeColor=#B20000;shadow=1;strokeWidth=3;labelBackgroundColor=none;" edge="1" parent="1" source="ljyijP0kOlmSLUWHq39t-5" target="ljyijP0kOlmSLUWHq39t-12">
          <mxGeometry x="1" y="-142" relative="1" as="geometry">
            <Array as="points">
              <mxPoint x="1815" y="585" />
            </Array>
            <mxPoint x="-29" y="35" as="offset" />
          </mxGeometry>
        </mxCell>
        <mxCell id="ljyijP0kOlmSLUWHq39t-23" value="2. Evaluar la naturaleza de los datos afectados" style="curved=1;startArrow=none;endArrow=block;exitX=-0.002255662043291823;exitY=0.8022868356074745;entryX=0.19794368331050446;entryY=0;rounded=0;fillColor=#e51400;strokeColor=#B20000;shadow=1;strokeWidth=3;labelBackgroundColor=none;" edge="1" parent="1" source="ljyijP0kOlmSLUWHq39t-5" target="ljyijP0kOlmSLUWHq39t-12">
          <mxGeometry x="-0.8307" y="63" relative="1" as="geometry">
            <Array as="points">
              <mxPoint x="1535" y="585" />
            </Array>
            <mxPoint as="offset" />
          </mxGeometry>
        </mxCell>
        <mxCell id="ljyijP0kOlmSLUWHq39t-24" value="3. Determinar las posibles consecuencias" style="curved=1;startArrow=none;endArrow=block;exitX=0.9982455834410244;exitY=0.7032828025588759;entryX=0.7534045618823448;entryY=0;rounded=0;fillColor=#a20025;strokeColor=#6F0000;shadow=1;strokeWidth=3;labelBackgroundColor=none;" edge="1" parent="1" source="ljyijP0kOlmSLUWHq39t-5" target="ljyijP0kOlmSLUWHq39t-13">
          <mxGeometry x="-0.7556" y="-62" relative="1" as="geometry">
            <Array as="points">
              <mxPoint x="2356" y="585" />
            </Array>
            <mxPoint as="offset" />
          </mxGeometry>
        </mxCell>
        <mxCell id="ljyijP0kOlmSLUWHq39t-25" value="4. Asignar una gravedad al incidente" style="curved=1;startArrow=none;endArrow=block;exitX=0.9821010580038961;exitY=1;entryX=0.24437321067875287;entryY=0;rounded=0;fillColor=#e51400;strokeColor=#B20000;shadow=1;strokeWidth=3;labelBackgroundColor=none;" edge="1" parent="1" source="ljyijP0kOlmSLUWHq39t-5" target="ljyijP0kOlmSLUWHq39t-13">
          <mxGeometry x="0.158" y="150" relative="1" as="geometry">
            <Array as="points">
              <mxPoint x="2058" y="585" />
            </Array>
            <mxPoint x="1" y="-4" as="offset" />
          </mxGeometry>
        </mxCell>
        <mxCell id="ljyijP0kOlmSLUWHq39t-30" value="Requisitos del RGPD" style="curved=1;startArrow=none;endArrow=block;exitX=0.5019025759065532;exitY=1;entryX=0.4994725577438934;entryY=0;rounded=0;fillColor=#008a00;strokeColor=#005700;shadow=1;strokeWidth=3;labelBackgroundColor=none;" edge="1" parent="1" source="ljyijP0kOlmSLUWHq39t-7" target="ljyijP0kOlmSLUWHq39t-10">
          <mxGeometry relative="1" as="geometry">
            <Array as="points" />
          </mxGeometry>
        </mxCell>
        <mxCell id="ljyijP0kOlmSLUWHq39t-31" value="Momento adecuado" style="curved=1;startArrow=none;endArrow=block;exitX=0.16218923397441648;exitY=1;entryX=0.49853722592617605;entryY=0;rounded=0;fillColor=#008a00;strokeColor=#005700;shadow=1;strokeWidth=3;labelBackgroundColor=none;" edge="1" parent="1" source="ljyijP0kOlmSLUWHq39t-7" target="ljyijP0kOlmSLUWHq39t-8">
          <mxGeometry relative="1" as="geometry">
            <Array as="points">
              <mxPoint x="1144" y="680" />
            </Array>
          </mxGeometry>
        </mxCell>
        <mxCell id="ljyijP0kOlmSLUWHq39t-32" value="" style="curved=1;startArrow=none;endArrow=block;exitX=0.49853722592617605;exitY=1;entryX=0.5012857055664063;entryY=0;rounded=0;fillColor=#008a00;strokeColor=#005700;shadow=1;strokeWidth=3;labelBackgroundColor=none;" edge="1" parent="1" source="ljyijP0kOlmSLUWHq39t-8" target="ljyijP0kOlmSLUWHq39t-11">
          <mxGeometry relative="1" as="geometry">
            <Array as="points" />
          </mxGeometry>
        </mxCell>
        <mxCell id="ljyijP0kOlmSLUWHq39t-33" value="Datos del Incidente" style="curved=1;startArrow=none;endArrow=block;exitX=1.0009999738420758;exitY=0.9571021753108871;entryX=0.6819360004207957;entryY=0;rounded=0;fillColor=#008a00;strokeColor=#005700;shadow=1;strokeWidth=3;labelBackgroundColor=none;" edge="1" parent="1" source="ljyijP0kOlmSLUWHq39t-11" target="ljyijP0kOlmSLUWHq39t-15">
          <mxGeometry x="0.3755" y="-4" relative="1" as="geometry">
            <Array as="points">
              <mxPoint x="1431" y="870" />
            </Array>
            <mxPoint as="offset" />
          </mxGeometry>
        </mxCell>
        <mxCell id="ljyijP0kOlmSLUWHq39t-34" value="Impacto en los Afectados" style="curved=1;startArrow=none;endArrow=block;exitX=0.7058492024739579;exitY=1;entryX=0.3169461537182811;entryY=0;rounded=0;fillColor=#008a00;strokeColor=#005700;shadow=1;strokeWidth=3;labelBackgroundColor=none;" edge="1" parent="1" source="ljyijP0kOlmSLUWHq39t-11" target="ljyijP0kOlmSLUWHq39t-15">
          <mxGeometry x="0.2884" y="-18" relative="1" as="geometry">
            <Array as="points">
              <mxPoint x="1251" y="870" />
            </Array>
            <mxPoint as="offset" />
          </mxGeometry>
        </mxCell>
        <mxCell id="ljyijP0kOlmSLUWHq39t-35" value="Medidas Correctivas Tomadas" style="curved=1;startArrow=none;endArrow=block;exitX=0.2967222086588546;exitY=1;entryX=0.000609770053770484;entryY=0.0971080363194525;rounded=0;fillColor=#008a00;strokeColor=#005700;shadow=1;strokeWidth=3;labelBackgroundColor=none;" edge="1" parent="1" source="ljyijP0kOlmSLUWHq39t-11" target="ljyijP0kOlmSLUWHq39t-15">
          <mxGeometry relative="1" as="geometry">
            <Array as="points">
              <mxPoint x="1036" y="870" />
            </Array>
          </mxGeometry>
        </mxCell>
        <mxCell id="ljyijP0kOlmSLUWHq39t-49" style="edgeStyle=entityRelationEdgeStyle;rounded=0;orthogonalLoop=1;jettySize=auto;html=1;startArrow=none;endArrow=none;segment=10;curved=1;sourcePerimeterSpacing=0;targetPerimeterSpacing=0;fillColor=#008a00;strokeColor=#005700;shadow=1;strokeWidth=3;labelBackgroundColor=none;" edge="1" parent="1" source="ljyijP0kOlmSLUWHq39t-40" target="ljyijP0kOlmSLUWHq39t-44">
          <mxGeometry relative="1" as="geometry" />
        </mxCell>
        <mxCell id="ljyijP0kOlmSLUWHq39t-50" style="edgeStyle=entityRelationEdgeStyle;rounded=0;orthogonalLoop=1;jettySize=auto;html=1;startArrow=none;endArrow=none;segment=10;curved=1;sourcePerimeterSpacing=0;targetPerimeterSpacing=0;entryX=1;entryY=0.5;entryDx=0;entryDy=0;fillColor=#008a00;strokeColor=#005700;shadow=1;strokeWidth=3;labelBackgroundColor=none;" edge="1" parent="1" source="ljyijP0kOlmSLUWHq39t-40" target="ljyijP0kOlmSLUWHq39t-46">
          <mxGeometry relative="1" as="geometry" />
        </mxCell>
        <mxCell id="ljyijP0kOlmSLUWHq39t-52" style="edgeStyle=entityRelationEdgeStyle;rounded=0;orthogonalLoop=1;jettySize=auto;html=1;startArrow=none;endArrow=none;segment=10;curved=1;sourcePerimeterSpacing=0;targetPerimeterSpacing=0;fillColor=#008a00;strokeColor=#005700;shadow=1;strokeWidth=3;labelBackgroundColor=none;" edge="1" parent="1" source="ljyijP0kOlmSLUWHq39t-40" target="ljyijP0kOlmSLUWHq39t-47">
          <mxGeometry relative="1" as="geometry" />
        </mxCell>
        <mxCell id="ljyijP0kOlmSLUWHq39t-67" style="edgeStyle=entityRelationEdgeStyle;rounded=0;orthogonalLoop=1;jettySize=auto;html=1;startArrow=none;endArrow=none;segment=10;curved=1;sourcePerimeterSpacing=0;targetPerimeterSpacing=0;fillColor=#008a00;strokeColor=#005700;shadow=1;strokeWidth=3;labelBackgroundColor=none;" edge="1" parent="1" source="ljyijP0kOlmSLUWHq39t-40" target="ljyijP0kOlmSLUWHq39t-65">
          <mxGeometry relative="1" as="geometry" />
        </mxCell>
        <mxCell id="ljyijP0kOlmSLUWHq39t-40" value="Términos y conceptos" style="ellipse;whiteSpace=wrap;html=1;align=center;newEdgeStyle={&quot;edgeStyle&quot;:&quot;entityRelationEdgeStyle&quot;,&quot;startArrow&quot;:&quot;none&quot;,&quot;endArrow&quot;:&quot;none&quot;,&quot;segment&quot;:10,&quot;curved&quot;:1,&quot;sourcePerimeterSpacing&quot;:0,&quot;targetPerimeterSpacing&quot;:0};treeFolding=1;treeMoving=1;fillColor=#008a00;fontColor=#ffffff;strokeColor=#005700;shadow=1;strokeWidth=3;labelBackgroundColor=none;" vertex="1" parent="1">
          <mxGeometry x="1593" y="410" width="147" height="55" as="geometry" />
        </mxCell>
        <mxCell id="ljyijP0kOlmSLUWHq39t-60" style="edgeStyle=entityRelationEdgeStyle;rounded=0;orthogonalLoop=1;jettySize=auto;html=1;startArrow=none;endArrow=none;segment=10;curved=1;sourcePerimeterSpacing=0;targetPerimeterSpacing=0;fillColor=#008a00;strokeColor=#005700;shadow=1;strokeWidth=3;labelBackgroundColor=none;" edge="1" parent="1" source="ljyijP0kOlmSLUWHq39t-41" target="ljyijP0kOlmSLUWHq39t-58">
          <mxGeometry relative="1" as="geometry" />
        </mxCell>
        <mxCell id="ljyijP0kOlmSLUWHq39t-41" value="&lt;b&gt;Consentimiento informado&lt;/b&gt;" style="whiteSpace=wrap;html=1;rounded=1;arcSize=50;align=center;verticalAlign=middle;strokeWidth=3;autosize=1;spacing=4;treeFolding=1;treeMoving=1;newEdgeStyle={&quot;edgeStyle&quot;:&quot;entityRelationEdgeStyle&quot;,&quot;startArrow&quot;:&quot;none&quot;,&quot;endArrow&quot;:&quot;none&quot;,&quot;segment&quot;:10,&quot;curved&quot;:1,&quot;sourcePerimeterSpacing&quot;:0,&quot;targetPerimeterSpacing&quot;:0};fillColor=#008a00;fontColor=#ffffff;strokeColor=#005700;shadow=1;labelBackgroundColor=none;" vertex="1" parent="1">
          <mxGeometry x="1386" y="295" width="200" height="30" as="geometry" />
        </mxCell>
        <mxCell id="ljyijP0kOlmSLUWHq39t-42" value="" style="edgeStyle=entityRelationEdgeStyle;startArrow=none;endArrow=none;segment=10;curved=1;sourcePerimeterSpacing=0;targetPerimeterSpacing=0;rounded=0;exitX=0;exitY=0.5;exitDx=0;exitDy=0;entryX=0.558;entryY=1.011;entryDx=0;entryDy=0;entryPerimeter=0;fillColor=#008a00;strokeColor=#005700;shadow=1;strokeWidth=3;labelBackgroundColor=none;" edge="1" target="ljyijP0kOlmSLUWHq39t-41" parent="1" source="ljyijP0kOlmSLUWHq39t-40">
          <mxGeometry relative="1" as="geometry">
            <mxPoint x="1536" y="460" as="sourcePoint" />
            <mxPoint x="1366" y="400" as="targetPoint" />
            <Array as="points">
              <mxPoint x="1526" y="320" />
              <mxPoint x="1606" y="380" />
              <mxPoint x="1506" y="470" />
              <mxPoint x="1486" y="490" />
              <mxPoint x="1516" y="400" />
              <mxPoint x="1516" y="400" />
            </Array>
          </mxGeometry>
        </mxCell>
        <mxCell id="ljyijP0kOlmSLUWHq39t-64" style="edgeStyle=entityRelationEdgeStyle;rounded=0;orthogonalLoop=1;jettySize=auto;html=1;startArrow=none;endArrow=none;segment=10;curved=1;sourcePerimeterSpacing=0;targetPerimeterSpacing=0;entryX=1;entryY=0.5;entryDx=0;entryDy=0;fillColor=#008a00;strokeColor=#005700;shadow=1;strokeWidth=3;labelBackgroundColor=none;" edge="1" parent="1" source="ljyijP0kOlmSLUWHq39t-44" target="ljyijP0kOlmSLUWHq39t-63">
          <mxGeometry relative="1" as="geometry" />
        </mxCell>
        <mxCell id="ljyijP0kOlmSLUWHq39t-44" value="&lt;strong&gt;Responsabilidad del Controlador y Procesador&lt;/strong&gt;" style="whiteSpace=wrap;html=1;rounded=1;arcSize=50;align=center;verticalAlign=middle;strokeWidth=3;autosize=1;spacing=4;treeFolding=1;treeMoving=1;newEdgeStyle={&quot;edgeStyle&quot;:&quot;entityRelationEdgeStyle&quot;,&quot;startArrow&quot;:&quot;none&quot;,&quot;endArrow&quot;:&quot;none&quot;,&quot;segment&quot;:10,&quot;curved&quot;:1,&quot;sourcePerimeterSpacing&quot;:0,&quot;targetPerimeterSpacing&quot;:0};fillColor=#008a00;fontColor=#ffffff;strokeColor=#005700;shadow=1;labelBackgroundColor=none;" vertex="1" parent="1">
          <mxGeometry x="1221" y="395" width="310" height="30" as="geometry" />
        </mxCell>
        <mxCell id="ljyijP0kOlmSLUWHq39t-70" style="edgeStyle=entityRelationEdgeStyle;rounded=0;orthogonalLoop=1;jettySize=auto;html=1;startArrow=none;endArrow=none;segment=10;curved=1;sourcePerimeterSpacing=0;targetPerimeterSpacing=0;fillColor=#008a00;strokeColor=#005700;shadow=1;strokeWidth=3;labelBackgroundColor=none;" edge="1" parent="1" source="ljyijP0kOlmSLUWHq39t-46" target="ljyijP0kOlmSLUWHq39t-68">
          <mxGeometry relative="1" as="geometry" />
        </mxCell>
        <mxCell id="ljyijP0kOlmSLUWHq39t-46" value="&lt;strong&gt;Evaluación de Impacto en la Protección de Datos (EIPD)&lt;/strong&gt;" style="whiteSpace=wrap;html=1;rounded=1;arcSize=50;align=center;verticalAlign=middle;strokeWidth=3;autosize=1;spacing=4;treeFolding=1;treeMoving=1;newEdgeStyle={&quot;edgeStyle&quot;:&quot;entityRelationEdgeStyle&quot;,&quot;startArrow&quot;:&quot;none&quot;,&quot;endArrow&quot;:&quot;none&quot;,&quot;segment&quot;:10,&quot;curved&quot;:1,&quot;sourcePerimeterSpacing&quot;:0,&quot;targetPerimeterSpacing&quot;:0};fillColor=#008a00;fontColor=#ffffff;strokeColor=#005700;shadow=1;labelBackgroundColor=none;" vertex="1" parent="1">
          <mxGeometry x="1196" y="445" width="360" height="30" as="geometry" />
        </mxCell>
        <mxCell id="ljyijP0kOlmSLUWHq39t-55" style="edgeStyle=entityRelationEdgeStyle;rounded=0;orthogonalLoop=1;jettySize=auto;html=1;startArrow=none;endArrow=none;segment=10;curved=1;sourcePerimeterSpacing=0;targetPerimeterSpacing=0;fillColor=#008a00;strokeColor=#005700;shadow=1;strokeWidth=3;labelBackgroundColor=none;" edge="1" parent="1" source="ljyijP0kOlmSLUWHq39t-47" target="ljyijP0kOlmSLUWHq39t-7">
          <mxGeometry relative="1" as="geometry" />
        </mxCell>
        <mxCell id="ljyijP0kOlmSLUWHq39t-71" style="edgeStyle=entityRelationEdgeStyle;rounded=0;orthogonalLoop=1;jettySize=auto;html=1;startArrow=none;endArrow=none;segment=10;curved=1;sourcePerimeterSpacing=0;targetPerimeterSpacing=0;entryX=1;entryY=0.5;entryDx=0;entryDy=0;fillColor=#008a00;strokeColor=#005700;shadow=1;strokeWidth=3;labelBackgroundColor=none;" edge="1" parent="1" source="ljyijP0kOlmSLUWHq39t-47" target="ljyijP0kOlmSLUWHq39t-69">
          <mxGeometry relative="1" as="geometry" />
        </mxCell>
        <mxCell id="ljyijP0kOlmSLUWHq39t-47" value="&lt;strong&gt;Notificación de Violaciones de Seguridad&lt;/strong&gt;" style="whiteSpace=wrap;html=1;rounded=1;arcSize=50;align=center;verticalAlign=middle;strokeWidth=3;autosize=1;spacing=4;treeFolding=1;treeMoving=1;newEdgeStyle={&quot;edgeStyle&quot;:&quot;entityRelationEdgeStyle&quot;,&quot;startArrow&quot;:&quot;none&quot;,&quot;endArrow&quot;:&quot;none&quot;,&quot;segment&quot;:10,&quot;curved&quot;:1,&quot;sourcePerimeterSpacing&quot;:0,&quot;targetPerimeterSpacing&quot;:0};fillColor=#008a00;fontColor=#ffffff;strokeColor=#005700;shadow=1;labelBackgroundColor=none;" vertex="1" parent="1">
          <mxGeometry x="1246" y="500" width="280" height="30" as="geometry" />
        </mxCell>
        <mxCell id="ljyijP0kOlmSLUWHq39t-58" value="&lt;font style=&quot;font-size: 10px;&quot;&gt;Las organizaciones deben obtener el consentimiento claro y específico de los individuos para procesar sus datos personales.&lt;/font&gt;" style="rounded=1;whiteSpace=wrap;html=1;fillColor=#008a00;fontColor=#ffffff;strokeColor=#005700;shadow=1;strokeWidth=3;labelBackgroundColor=none;" vertex="1" parent="1">
          <mxGeometry x="1146" y="125" width="170" height="100" as="geometry" />
        </mxCell>
        <mxCell id="ljyijP0kOlmSLUWHq39t-61" value="&lt;font style=&quot;font-size: 10px;&quot;&gt;Los individuos tienen derechos, incluyendo el derecho de acceso, rectificación, supresión y portabilidad de sus datos.&lt;/font&gt;" style="rounded=1;whiteSpace=wrap;html=1;fillColor=#008a00;fontColor=#ffffff;strokeColor=#005700;shadow=1;strokeWidth=3;labelBackgroundColor=none;" vertex="1" parent="1">
          <mxGeometry x="956" y="150" width="170" height="100" as="geometry" />
        </mxCell>
        <mxCell id="ljyijP0kOlmSLUWHq39t-63" value="&lt;font style=&quot;font-size: 10px;&quot;&gt;Las organizaciones son responsables de cumplir con el RGPD, y tanto los &lt;br&gt;controladores como los procesadores de datos comparten responsabilidades&lt;br&gt; específicas.&lt;/font&gt;" style="rounded=1;whiteSpace=wrap;html=1;fillColor=#008a00;fontColor=#ffffff;strokeColor=#005700;shadow=1;strokeWidth=3;labelBackgroundColor=none;" vertex="1" parent="1">
          <mxGeometry x="886" y="260" width="200" height="85" as="geometry" />
        </mxCell>
        <mxCell id="ljyijP0kOlmSLUWHq39t-65" value="&lt;b&gt;Consentimiento informado&lt;/b&gt;" style="whiteSpace=wrap;html=1;rounded=1;arcSize=50;align=center;verticalAlign=middle;strokeWidth=3;autosize=1;spacing=4;treeFolding=1;treeMoving=1;newEdgeStyle={&quot;edgeStyle&quot;:&quot;entityRelationEdgeStyle&quot;,&quot;startArrow&quot;:&quot;none&quot;,&quot;endArrow&quot;:&quot;none&quot;,&quot;segment&quot;:10,&quot;curved&quot;:1,&quot;sourcePerimeterSpacing&quot;:0,&quot;targetPerimeterSpacing&quot;:0};fillColor=#008a00;fontColor=#ffffff;strokeColor=#005700;shadow=1;labelBackgroundColor=none;" vertex="1" parent="1">
          <mxGeometry x="1221" y="340" width="200" height="30" as="geometry" />
        </mxCell>
        <mxCell id="ljyijP0kOlmSLUWHq39t-66" style="edgeStyle=entityRelationEdgeStyle;rounded=0;orthogonalLoop=1;jettySize=auto;html=1;startArrow=none;endArrow=none;segment=10;curved=1;sourcePerimeterSpacing=0;targetPerimeterSpacing=0;entryX=1.024;entryY=0.53;entryDx=0;entryDy=0;entryPerimeter=0;fillColor=#008a00;strokeColor=#005700;shadow=1;strokeWidth=3;labelBackgroundColor=none;" edge="1" parent="1" source="ljyijP0kOlmSLUWHq39t-65" target="ljyijP0kOlmSLUWHq39t-61">
          <mxGeometry relative="1" as="geometry" />
        </mxCell>
        <mxCell id="ljyijP0kOlmSLUWHq39t-68" value="&lt;font style=&quot;font-size: 10px;&quot;&gt;En ciertos casos, es necesario realizar una EIPD para evaluar y gestionar los riesgos del tratamiento de datos personales.&lt;/font&gt;" style="rounded=1;whiteSpace=wrap;html=1;fillColor=#008a00;fontColor=#ffffff;strokeColor=#005700;shadow=1;strokeWidth=3;labelBackgroundColor=none;" vertex="1" parent="1">
          <mxGeometry x="850" y="357.5" width="200" height="85" as="geometry" />
        </mxCell>
        <mxCell id="ljyijP0kOlmSLUWHq39t-69" value="&lt;font style=&quot;font-size: 10px;&quot;&gt;Las organizaciones deben notificar a la autoridad de control y, en &lt;br&gt;algunos casos, a los individuos, sobre violaciones de seguridad que &lt;br&gt;puedan afectar sus datos personales.&lt;/font&gt;" style="rounded=1;whiteSpace=wrap;html=1;fillColor=#008a00;fontColor=#ffffff;strokeColor=#005700;shadow=1;strokeWidth=3;labelBackgroundColor=none;" vertex="1" parent="1">
          <mxGeometry x="886" y="465" width="200" height="85" as="geometry" />
        </mxCell>
        <mxCell id="ljyijP0kOlmSLUWHq39t-76" style="edgeStyle=entityRelationEdgeStyle;rounded=0;orthogonalLoop=1;jettySize=auto;html=1;startArrow=none;endArrow=none;segment=10;curved=1;sourcePerimeterSpacing=0;targetPerimeterSpacing=0;fillColor=#6d8764;strokeColor=#3A5431;shadow=1;strokeWidth=3;labelBackgroundColor=none;" edge="1" parent="1" source="ljyijP0kOlmSLUWHq39t-74" target="ljyijP0kOlmSLUWHq39t-1">
          <mxGeometry relative="1" as="geometry" />
        </mxCell>
        <mxCell id="ljyijP0kOlmSLUWHq39t-80" style="edgeStyle=entityRelationEdgeStyle;rounded=0;orthogonalLoop=1;jettySize=auto;html=1;startArrow=none;endArrow=none;segment=10;curved=1;sourcePerimeterSpacing=0;targetPerimeterSpacing=0;fillColor=#6d8764;strokeColor=#3A5431;shadow=1;strokeWidth=3;labelBackgroundColor=none;" edge="1" parent="1" source="ljyijP0kOlmSLUWHq39t-74" target="ljyijP0kOlmSLUWHq39t-17">
          <mxGeometry relative="1" as="geometry" />
        </mxCell>
        <mxCell id="ljyijP0kOlmSLUWHq39t-74" value="&lt;b&gt;Referencias&lt;/b&gt;" style="whiteSpace=wrap;html=1;rounded=1;arcSize=50;align=center;verticalAlign=middle;strokeWidth=3;autosize=1;spacing=4;treeFolding=1;treeMoving=1;newEdgeStyle={&quot;edgeStyle&quot;:&quot;entityRelationEdgeStyle&quot;,&quot;startArrow&quot;:&quot;none&quot;,&quot;endArrow&quot;:&quot;none&quot;,&quot;segment&quot;:10,&quot;curved&quot;:1,&quot;sourcePerimeterSpacing&quot;:0,&quot;targetPerimeterSpacing&quot;:0};fillColor=#6d8764;fontColor=#ffffff;strokeColor=#3A5431;shadow=1;labelBackgroundColor=none;" vertex="1" parent="1">
          <mxGeometry x="1796" y="115" width="110" height="30" as="geometry" />
        </mxCell>
        <mxCell id="ljyijP0kOlmSLUWHq39t-78" style="edgeStyle=entityRelationEdgeStyle;rounded=0;orthogonalLoop=1;jettySize=auto;html=1;startArrow=none;endArrow=none;segment=10;curved=1;sourcePerimeterSpacing=0;targetPerimeterSpacing=0;entryX=0.5;entryY=0;entryDx=0;entryDy=0;fillColor=#008a00;strokeColor=#005700;shadow=1;strokeWidth=3;labelBackgroundColor=none;" edge="1" parent="1" source="ljyijP0kOlmSLUWHq39t-77" target="ljyijP0kOlmSLUWHq39t-40">
          <mxGeometry relative="1" as="geometry" />
        </mxCell>
        <mxCell id="ljyijP0kOlmSLUWHq39t-79" style="edgeStyle=entityRelationEdgeStyle;rounded=0;orthogonalLoop=1;jettySize=auto;html=1;startArrow=none;endArrow=none;segment=10;curved=1;sourcePerimeterSpacing=0;targetPerimeterSpacing=0;fillColor=#008a00;strokeColor=#005700;shadow=1;strokeWidth=3;labelBackgroundColor=none;" edge="1" parent="1" source="ljyijP0kOlmSLUWHq39t-77" target="ljyijP0kOlmSLUWHq39t-74">
          <mxGeometry relative="1" as="geometry" />
        </mxCell>
        <mxCell id="ljyijP0kOlmSLUWHq39t-82" style="edgeStyle=entityRelationEdgeStyle;rounded=0;orthogonalLoop=1;jettySize=auto;html=1;startArrow=none;endArrow=none;segment=10;curved=1;sourcePerimeterSpacing=0;targetPerimeterSpacing=0;entryX=0;entryY=0.75;entryDx=0;entryDy=0;fillColor=#008a00;strokeColor=#005700;shadow=1;strokeWidth=3;labelBackgroundColor=none;" edge="1" parent="1" source="ljyijP0kOlmSLUWHq39t-77" target="ljyijP0kOlmSLUWHq39t-81">
          <mxGeometry relative="1" as="geometry" />
        </mxCell>
        <mxCell id="ljyijP0kOlmSLUWHq39t-77" value="Privacidad y seguridad de datos" style="ellipse;whiteSpace=wrap;html=1;align=center;newEdgeStyle={&quot;edgeStyle&quot;:&quot;entityRelationEdgeStyle&quot;,&quot;startArrow&quot;:&quot;none&quot;,&quot;endArrow&quot;:&quot;none&quot;,&quot;segment&quot;:10,&quot;curved&quot;:1,&quot;sourcePerimeterSpacing&quot;:0,&quot;targetPerimeterSpacing&quot;:0};treeFolding=1;treeMoving=1;fillColor=#1ba1e2;fontColor=#ffffff;strokeColor=#006EAF;shadow=1;strokeWidth=3;fontStyle=5;fontSize=17;labelBackgroundColor=none;" vertex="1" parent="1">
          <mxGeometry x="1421" y="172.5" width="226.5" height="70" as="geometry" />
        </mxCell>
        <mxCell id="ljyijP0kOlmSLUWHq39t-81" value="Criterios para Determinar una Violación de Seguridad" style="whiteSpace=wrap;html=1;rounded=1;arcSize=50;align=center;verticalAlign=middle;strokeWidth=3;autosize=1;spacing=4;treeFolding=1;treeMoving=1;newEdgeStyle={&quot;edgeStyle&quot;:&quot;entityRelationEdgeStyle&quot;,&quot;startArrow&quot;:&quot;none&quot;,&quot;endArrow&quot;:&quot;none&quot;,&quot;segment&quot;:10,&quot;curved&quot;:1,&quot;sourcePerimeterSpacing&quot;:0,&quot;targetPerimeterSpacing&quot;:0};fillColor=#a20025;fontColor=#ffffff;strokeColor=#6F0000;shadow=1;labelBackgroundColor=none;" vertex="1" parent="1">
          <mxGeometry x="1825" y="325" width="330" height="30" as="geometry" />
        </mxCell>
        <mxCell id="ljyijP0kOlmSLUWHq39t-85" style="edgeStyle=entityRelationEdgeStyle;rounded=0;orthogonalLoop=1;jettySize=auto;html=1;startArrow=none;endArrow=none;segment=10;curved=1;sourcePerimeterSpacing=0;targetPerimeterSpacing=0;entryX=0.458;entryY=-0.048;entryDx=0;entryDy=0;entryPerimeter=0;fillColor=#a20025;strokeColor=#6F0000;shadow=1;strokeWidth=3;labelBackgroundColor=none;" edge="1" parent="1" source="ljyijP0kOlmSLUWHq39t-81" target="ljyijP0kOlmSLUWHq39t-3">
          <mxGeometry relative="1" as="geometry" />
        </mxCell>
        <mxCell id="ljyijP0kOlmSLUWHq39t-90" style="edgeStyle=entityRelationEdgeStyle;rounded=0;orthogonalLoop=1;jettySize=auto;html=1;startArrow=none;endArrow=none;segment=10;curved=1;sourcePerimeterSpacing=0;targetPerimeterSpacing=0;entryX=0;entryY=0.25;entryDx=0;entryDy=0;fillColor=#a20025;strokeColor=#6F0000;shadow=1;strokeWidth=3;labelBackgroundColor=none;" edge="1" parent="1" source="ljyijP0kOlmSLUWHq39t-87" target="ljyijP0kOlmSLUWHq39t-89">
          <mxGeometry relative="1" as="geometry" />
        </mxCell>
        <mxCell id="ljyijP0kOlmSLUWHq39t-92" style="edgeStyle=entityRelationEdgeStyle;rounded=0;orthogonalLoop=1;jettySize=auto;html=1;startArrow=none;endArrow=none;segment=10;curved=1;sourcePerimeterSpacing=0;targetPerimeterSpacing=0;entryX=0;entryY=0.5;entryDx=0;entryDy=0;fillColor=#a20025;strokeColor=#6F0000;shadow=1;strokeWidth=3;labelBackgroundColor=none;" edge="1" parent="1" source="ljyijP0kOlmSLUWHq39t-87" target="ljyijP0kOlmSLUWHq39t-91">
          <mxGeometry relative="1" as="geometry" />
        </mxCell>
        <mxCell id="ljyijP0kOlmSLUWHq39t-96" style="edgeStyle=entityRelationEdgeStyle;rounded=0;orthogonalLoop=1;jettySize=auto;html=1;startArrow=none;endArrow=none;segment=10;curved=1;sourcePerimeterSpacing=0;targetPerimeterSpacing=0;fillColor=#a20025;strokeColor=#6F0000;shadow=1;strokeWidth=3;labelBackgroundColor=none;" edge="1" parent="1" source="ljyijP0kOlmSLUWHq39t-87" target="ljyijP0kOlmSLUWHq39t-95">
          <mxGeometry relative="1" as="geometry" />
        </mxCell>
        <mxCell id="ljyijP0kOlmSLUWHq39t-87" value="Factores a considerar" style="whiteSpace=wrap;html=1;rounded=1;arcSize=50;align=center;verticalAlign=middle;strokeWidth=3;autosize=1;spacing=4;treeFolding=1;treeMoving=1;newEdgeStyle={&quot;edgeStyle&quot;:&quot;entityRelationEdgeStyle&quot;,&quot;startArrow&quot;:&quot;none&quot;,&quot;endArrow&quot;:&quot;none&quot;,&quot;segment&quot;:10,&quot;curved&quot;:1,&quot;sourcePerimeterSpacing&quot;:0,&quot;targetPerimeterSpacing&quot;:0};fillColor=#a20025;fontColor=#ffffff;strokeColor=#6F0000;shadow=1;labelBackgroundColor=none;" vertex="1" parent="1">
          <mxGeometry x="2120" y="515" width="115" height="30" as="geometry" />
        </mxCell>
        <mxCell id="ljyijP0kOlmSLUWHq39t-89" value="&lt;div&gt;&lt;strong&gt;Naturaleza de los Datos&lt;/strong&gt;:&amp;nbsp;&lt;/div&gt;&lt;div&gt;La sensibilidad de los datos personales involucrados en el incidente.&lt;/div&gt;" style="rounded=1;whiteSpace=wrap;html=1;fillColor=#a20025;fontColor=#ffffff;strokeColor=#6F0000;shadow=1;strokeWidth=3;labelBackgroundColor=none;" vertex="1" parent="1">
          <mxGeometry x="2310" y="380" width="190" height="60" as="geometry" />
        </mxCell>
        <mxCell id="ljyijP0kOlmSLUWHq39t-91" value="&lt;div&gt;&lt;strong&gt;Alcance del Acceso No Autorizado:&lt;/strong&gt;&amp;nbsp;&lt;/div&gt;&lt;div&gt;Determinar si la violación afecta a una pequeña cantidad o a un gran volumen de datos.&lt;/div&gt;" style="rounded=1;whiteSpace=wrap;html=1;fillColor=#a20025;fontColor=#ffffff;strokeColor=#6F0000;shadow=1;strokeWidth=3;labelBackgroundColor=none;" vertex="1" parent="1">
          <mxGeometry x="2310" y="465" width="220" height="60" as="geometry" />
        </mxCell>
        <mxCell id="ljyijP0kOlmSLUWHq39t-93" value="&lt;div&gt;&lt;strong&gt;Consecuencias para los Afectados: &lt;br&gt;&lt;/strong&gt;&lt;/div&gt;&lt;div&gt;Evaluar el posible impacto negativo en los derechos y libertades de los individuos afectados.&lt;/div&gt;" style="rounded=1;whiteSpace=wrap;html=1;fillColor=#a20025;fontColor=#ffffff;strokeColor=#6F0000;shadow=1;strokeWidth=3;labelBackgroundColor=none;" vertex="1" parent="1">
          <mxGeometry x="2310" y="547.5" width="220" height="60" as="geometry" />
        </mxCell>
        <mxCell id="ljyijP0kOlmSLUWHq39t-94" style="edgeStyle=entityRelationEdgeStyle;rounded=0;orthogonalLoop=1;jettySize=auto;html=1;startArrow=none;endArrow=none;segment=10;curved=1;sourcePerimeterSpacing=0;targetPerimeterSpacing=0;entryX=-0.011;entryY=0.364;entryDx=0;entryDy=0;entryPerimeter=0;fillColor=#a20025;strokeColor=#6F0000;shadow=1;strokeWidth=3;labelBackgroundColor=none;" edge="1" parent="1" source="ljyijP0kOlmSLUWHq39t-87" target="ljyijP0kOlmSLUWHq39t-93">
          <mxGeometry relative="1" as="geometry" />
        </mxCell>
        <mxCell id="ljyijP0kOlmSLUWHq39t-95" value="&lt;div&gt;&lt;strong&gt;Circunstancias Específicas del Tratamiento:&lt;/strong&gt;&lt;/div&gt;&lt;div&gt;Considerar el propósito del tratamiento, la relación con los titulares &lt;br&gt;de los datos y cualquier medida de seguridad implementada.&lt;/div&gt;" style="rounded=1;whiteSpace=wrap;html=1;fillColor=#a20025;fontColor=#ffffff;strokeColor=#6F0000;shadow=1;strokeWidth=3;labelBackgroundColor=none;" vertex="1" parent="1">
          <mxGeometry x="2310" y="630" width="220" height="100" as="geometry" />
        </mxCell>
        <mxCell id="ljyijP0kOlmSLUWHq39t-99" style="edgeStyle=entityRelationEdgeStyle;rounded=0;orthogonalLoop=1;jettySize=auto;html=1;startArrow=none;endArrow=none;segment=10;curved=1;sourcePerimeterSpacing=0;targetPerimeterSpacing=0;entryX=0.005;entryY=0.388;entryDx=0;entryDy=0;entryPerimeter=0;fillColor=#6d8764;strokeColor=#3A5431;shadow=1;strokeWidth=3;labelBackgroundColor=none;" edge="1" parent="1" source="ljyijP0kOlmSLUWHq39t-74" target="ljyijP0kOlmSLUWHq39t-16">
          <mxGeometry relative="1" as="geometry" />
        </mxCell>
      </root>
    </mxGraphModel>
  </diagram>
</mxfile>
